{
	"asset":{
		"generator":"Khronos glTF Blender I/O v4.3.47",
		"version":"2.0"
	},
	"scene":0,
	"scenes":[
		{
			"name":"Scene",
			"nodes":[
				0
			]
		}
	],
	"nodes":[
		{
			"mesh":0,
			"name":"ActualMars_Baked",
			"scale":[
				100,
				100,
				100
			]
		}
	],
	"materials":[
		{
			"doubleSided":true,
			"name":"ActualMars_Baked",
			"normalTexture":{
				"index":0
			},
			"pbrMetallicRoughness":{
				"baseColorTexture":{
					"index":1
				},
				"metallicRoughnessTexture":{
					"index":2
				}
			}
		}
	],
	"meshes":[
		{
			"name":"Cube.001",
			"primitives":[
				{
					"attributes":{
						"POSITION":0,
						"NORMAL":1,
						"TEXCOORD_0":2
					},
					"indices":3,
					"material":0
				}
			]
		}
	],
	"textures":[
		{
			"sampler":0,
			"source":0
		},
		{
			"sampler":0,
			"source":1
		},
		{
			"sampler":0,
			"source":2
		}
	],
	"images":[
		{
			"mimeType":"image/jpeg",
			"name":"ActualMars_Bake1_PBR_Normal",
			"uri":"textures/ActualMars_Bake1_PBR_Normal.jpg"
		},
		{
			"mimeType":"image/jpeg",
			"name":"ActualMars_Bake1_PBR_Diffuse",
			"uri":"textures/ActualMars_Bake1_PBR_Diffuse.jpg"
		},
		{
			"mimeType":"image/png",
			"name":"ActualMars_Bake1_PBR_Metalness-ActualMars_Bake1_PBR_Roughness",
			"uri":"textures/ActualMars_Bake1_PBR_Metalness-ActualMars_Bake1_PBR_Roughness.png"
		}
	],
	"accessors":[
		{
			"bufferView":0,
			"componentType":5126,
			"count":10174,
			"max":[
				1.6814638376235962,
				1.6814638376235962,
				1.6814638376235962
			],
			"min":[
				-1.6814638376235962,
				-1.6814638376235962,
				-1.6814638376235962
			],
			"type":"VEC3"
		},
		{
			"bufferView":1,
			"componentType":5126,
			"count":10174,
			"type":"VEC3"
		},
		{
			"bufferView":2,
			"componentType":5126,
			"count":10174,
			"type":"VEC2"
		},
		{
			"bufferView":3,
			"componentType":5123,
			"count":57600,
			"type":"SCALAR"
		}
	],
	"bufferViews":[
		{
			"buffer":0,
			"byteLength":122088,
			"byteOffset":0,
			"target":34962
		},
		{
			"buffer":0,
			"byteLength":122088,
			"byteOffset":122088,
			"target":34962
		},
		{
			"buffer":0,
			"byteLength":81392,
			"byteOffset":244176,
			"target":34962
		},
		{
			"buffer":0,
			"byteLength":115200,
			"byteOffset":325568,
			"target":34963
		}
	],
	"samplers":[
		{
			"magFilter":9729,
			"minFilter":9987
		}
	],
	"buffers":[
		{
			"byteLength":440768,
			"uri":"scene.bin"
		}
	]
}
