{
	"asset":{
		"generator":"Khronos glTF Blender I/O v4.3.47",
		"version":"2.0"
	},
	"extensionsUsed":[
		"KHR_materials_emissive_strength"
	],
	"scene":0,
	"scenes":[
		{
			"name":"Scene",
			"nodes":[
				0
			]
		}
	],
	"nodes":[
		{
			"mesh":0,
			"name":"Sphere.001",
			"rotation":[
				0.844687283039093,
				-0.25026723742485046,
				-0.45852231979370117,
				0.11673581600189209
			],
			"scale":[
				4.348800182342529,
				4.348800182342529,
				4.348800182342529
			],
			"translation":[
				1.161819000117248e-05,
				0,
				1.161819000117248e-05
			]
		}
	],
	"materials":[
		{
			"doubleSided":true,
			"emissiveFactor":[
				1,
				1,
				1
			],
			"emissiveTexture":{
				"index":0
			},
			"extensions":{
				"KHR_materials_emissive_strength":{
					"emissiveStrength":100
				}
			},
			"name":"Material.001",
			"pbrMetallicRoughness":{
				"baseColorFactor":[
					0.800000011920929,
					0.800000011920929,
					0.800000011920929,
					1
				],
				"metallicFactor":0,
				"roughnessFactor":0.5
			}
		}
	],
	"meshes":[
		{
			"name":"Sphere.001",
			"primitives":[
				{
					"attributes":{
						"POSITION":0,
						"NORMAL":1,
						"TEXCOORD_0":2
					},
					"indices":3,
					"material":0
				}
			]
		}
	],
	"textures":[
		{
			"sampler":0,
			"source":0
		}
	],
	"images":[
		{
			"mimeType":"image/jpeg",
			"name":"Sphere",
			"uri":"textures/Sphere.jpg"
		}
	],
	"accessors":[
		{
			"bufferView":0,
			"componentType":5126,
			"count":1984,
			"max":[
				1.0000015497207642,
				0.9999837279319763,
				-42.3707275390625
			],
			"min":[
				-0.9999972581863403,
				-1.0000163316726685,
				-44.3707275390625
			],
			"type":"VEC3"
		},
		{
			"bufferView":1,
			"componentType":5126,
			"count":1984,
			"type":"VEC3"
		},
		{
			"bufferView":2,
			"componentType":5126,
			"count":1984,
			"type":"VEC2"
		},
		{
			"bufferView":3,
			"componentType":5123,
			"count":2880,
			"type":"SCALAR"
		}
	],
	"bufferViews":[
		{
			"buffer":0,
			"byteLength":23808,
			"byteOffset":0,
			"target":34962
		},
		{
			"buffer":0,
			"byteLength":23808,
			"byteOffset":23808,
			"target":34962
		},
		{
			"buffer":0,
			"byteLength":15872,
			"byteOffset":47616,
			"target":34962
		},
		{
			"buffer":0,
			"byteLength":5760,
			"byteOffset":63488,
			"target":34963
		}
	],
	"samplers":[
		{
			"magFilter":9729,
			"minFilter":9987
		}
	],
	"buffers":[
		{
			"byteLength":69248,
			"uri":"scene.bin"
		}
	]
}
