{
	"asset":{
		"generator":"Khronos glTF Blender I/O v4.3.47",
		"version":"2.0"
	},
	"extensionsUsed":[
		"KHR_materials_specular"
	],
	"scene":0,
	"scenes":[
		{
			"name":"Scene",
			"nodes":[
				0
			]
		}
	],
	"nodes":[
		{
			"mesh":0,
			"name":"W\u00e4nde",
			"rotation":[
				0,
				0,
				-0.7071068286895752,
				0.7071068286895752
			],
			"scale":[
				18.058263778686523,
				18.058263778686523,
				18.058263778686523
			]
		}
	],
	"materials":[
		{
			"doubleSided":true,
			"name":"Wood Parquet",
			"pbrMetallicRoughness":{
				"baseColorTexture":{
					"index":0
				},
				"metallicFactor":0,
				"roughnessFactor":0.5
			}
		},
		{
			"doubleSided":true,
			"name":"Whiite Pyramid Decor wall",
			"pbrMetallicRoughness":{
				"baseColorFactor":[
					0.800000011920929,
					0.800000011920929,
					0.800000011920929,
					1
				],
				"metallicFactor":0,
				"metallicRoughnessTexture":{
					"index":1
				}
			}
		},
		{
			"doubleSided":true,
			"name":"door MF wood",
			"pbrMetallicRoughness":{
				"baseColorTexture":{
					"index":2
				},
				"metallicFactor":0,
				"roughnessFactor":0.5
			}
		},
		{
			"doubleSided":true,
			"extensions":{
				"KHR_materials_specular":{
					"specularColorFactor":[
						2.0,
						2.0,
						2.0
					]
				}
			},
			"name":"door MF metal",
			"pbrMetallicRoughness":{
				"baseColorFactor":[
					0.800000011920929,
					0.800000011920929,
					0.800000011920929,
					1
				],
				"roughnessFactor":0.20000000298023224
			}
		},
		{
			"doubleSided":true,
			"name":"Bathroom tiles.001",
			"pbrMetallicRoughness":{
				"baseColorFactor":[
					0.800000011920929,
					0.800000011920929,
					0.800000011920929,
					1
				],
				"metallicFactor":0,
				"roughnessFactor":0.2772727310657501
			}
		}
	],
	"meshes":[
		{
			"name":"Plane.003",
			"primitives":[
				{
					"attributes":{
						"POSITION":0,
						"NORMAL":1,
						"TEXCOORD_0":2,
						"TEXCOORD_1":3
					},
					"indices":4,
					"material":0
				},
				{
					"attributes":{
						"POSITION":5,
						"NORMAL":6,
						"TEXCOORD_0":7,
						"TEXCOORD_1":8
					},
					"indices":9,
					"material":1
				},
				{
					"attributes":{
						"POSITION":10,
						"NORMAL":11,
						"TEXCOORD_0":12,
						"TEXCOORD_1":13
					},
					"indices":14,
					"material":2
				},
				{
					"attributes":{
						"POSITION":15,
						"NORMAL":16,
						"TEXCOORD_0":17,
						"TEXCOORD_1":18
					},
					"indices":19,
					"material":3
				},
				{
					"attributes":{
						"POSITION":20,
						"NORMAL":21,
						"TEXCOORD_0":22,
						"TEXCOORD_1":23
					},
					"indices":24,
					"material":4
				}
			]
		}
	],
	"textures":[
		{
			"sampler":0,
			"source":0
		},
		{
			"sampler":0,
			"source":1
		},
		{
			"sampler":0,
			"source":2
		}
	],
	"images":[
		{
			"mimeType":"image/jpeg",
			"name":"woodparquet_67_BaseColor-2K",
			"uri":"textures/woodparquet_67_BaseColor-2K.jpg"
		},
		{
			"mimeType":"image/png",
			"name":"Whiite_Pyramid_Decor_wall_Roughness",
			"uri":"textures/Whiite_Pyramid_Decor_wall_Roughness.png"
		},
		{
			"mimeType":"image/jpeg",
			"name":"door MF wood",
			"uri":"textures/door%20MF%20wood.jpg"
		}
	],
	"accessors":[
		{
			"bufferView":0,
			"componentType":5126,
			"count":110,
			"max":[
				4,
				2,
				7.25
			],
			"min":[
				-4,
				0,
				-7.25
			],
			"type":"VEC3"
		},
		{
			"bufferView":1,
			"componentType":5126,
			"count":110,
			"type":"VEC3"
		},
		{
			"bufferView":2,
			"componentType":5126,
			"count":110,
			"type":"VEC2"
		},
		{
			"bufferView":3,
			"componentType":5126,
			"count":110,
			"type":"VEC2"
		},
		{
			"bufferView":4,
			"componentType":5123,
			"count":168,
			"type":"SCALAR"
		},
		{
			"bufferView":5,
			"componentType":5126,
			"count":426,
			"max":[
				4.1541595458984375,
				3,
				7.441122055053711
			],
			"min":[
				-4.104063034057617,
				0,
				-7.5269060134887695
			],
			"type":"VEC3"
		},
		{
			"bufferView":6,
			"componentType":5126,
			"count":426,
			"type":"VEC3"
		},
		{
			"bufferView":7,
			"componentType":5126,
			"count":426,
			"type":"VEC2"
		},
		{
			"bufferView":8,
			"componentType":5126,
			"count":426,
			"type":"VEC2"
		},
		{
			"bufferView":9,
			"componentType":5123,
			"count":960,
			"type":"SCALAR"
		},
		{
			"bufferView":10,
			"componentType":5126,
			"count":20246,
			"max":[
				0.8433892130851746,
				2.0519535541534424,
				5.134927749633789
			],
			"min":[
				-0.9080690741539001,
				0.05195194482803345,
				-6.387775421142578
			],
			"type":"VEC3"
		},
		{
			"bufferView":11,
			"componentType":5126,
			"count":20246,
			"type":"VEC3"
		},
		{
			"bufferView":12,
			"componentType":5126,
			"count":20246,
			"type":"VEC2"
		},
		{
			"bufferView":13,
			"componentType":5126,
			"count":20246,
			"type":"VEC2"
		},
		{
			"bufferView":14,
			"componentType":5123,
			"count":39960,
			"type":"SCALAR"
		},
		{
			"bufferView":15,
			"componentType":5126,
			"count":55521,
			"max":[
				0.8433892130851746,
				1.7426564693450928,
				5.1515913009643555
			],
			"min":[
				-0.31994330883026123,
				0.2634541392326355,
				-5.56895637512207
			],
			"type":"VEC3"
		},
		{
			"bufferView":16,
			"componentType":5126,
			"count":55521,
			"type":"VEC3"
		},
		{
			"bufferView":17,
			"componentType":5126,
			"count":55521,
			"type":"VEC2"
		},
		{
			"bufferView":18,
			"componentType":5126,
			"count":55521,
			"type":"VEC2"
		},
		{
			"bufferView":19,
			"componentType":5123,
			"count":202650,
			"type":"SCALAR"
		},
		{
			"bufferView":20,
			"componentType":5126,
			"count":16,
			"max":[
				4,
				0,
				3.416318416595459
			],
			"min":[
				-4,
				0,
				-7.25
			],
			"type":"VEC3"
		},
		{
			"bufferView":21,
			"componentType":5126,
			"count":16,
			"type":"VEC3"
		},
		{
			"bufferView":22,
			"componentType":5126,
			"count":16,
			"type":"VEC2"
		},
		{
			"bufferView":23,
			"componentType":5126,
			"count":16,
			"type":"VEC2"
		},
		{
			"bufferView":24,
			"componentType":5123,
			"count":24,
			"type":"SCALAR"
		}
	],
	"bufferViews":[
		{
			"buffer":0,
			"byteLength":1320,
			"byteOffset":0,
			"target":34962
		},
		{
			"buffer":0,
			"byteLength":1320,
			"byteOffset":1320,
			"target":34962
		},
		{
			"buffer":0,
			"byteLength":880,
			"byteOffset":2640,
			"target":34962
		},
		{
			"buffer":0,
			"byteLength":880,
			"byteOffset":3520,
			"target":34962
		},
		{
			"buffer":0,
			"byteLength":336,
			"byteOffset":4400,
			"target":34963
		},
		{
			"buffer":0,
			"byteLength":5112,
			"byteOffset":4736,
			"target":34962
		},
		{
			"buffer":0,
			"byteLength":5112,
			"byteOffset":9848,
			"target":34962
		},
		{
			"buffer":0,
			"byteLength":3408,
			"byteOffset":14960,
			"target":34962
		},
		{
			"buffer":0,
			"byteLength":3408,
			"byteOffset":18368,
			"target":34962
		},
		{
			"buffer":0,
			"byteLength":1920,
			"byteOffset":21776,
			"target":34963
		},
		{
			"buffer":0,
			"byteLength":242952,
			"byteOffset":23696,
			"target":34962
		},
		{
			"buffer":0,
			"byteLength":242952,
			"byteOffset":266648,
			"target":34962
		},
		{
			"buffer":0,
			"byteLength":161968,
			"byteOffset":509600,
			"target":34962
		},
		{
			"buffer":0,
			"byteLength":161968,
			"byteOffset":671568,
			"target":34962
		},
		{
			"buffer":0,
			"byteLength":79920,
			"byteOffset":833536,
			"target":34963
		},
		{
			"buffer":0,
			"byteLength":666252,
			"byteOffset":913456,
			"target":34962
		},
		{
			"buffer":0,
			"byteLength":666252,
			"byteOffset":1579708,
			"target":34962
		},
		{
			"buffer":0,
			"byteLength":444168,
			"byteOffset":2245960,
			"target":34962
		},
		{
			"buffer":0,
			"byteLength":444168,
			"byteOffset":2690128,
			"target":34962
		},
		{
			"buffer":0,
			"byteLength":405300,
			"byteOffset":3134296,
			"target":34963
		},
		{
			"buffer":0,
			"byteLength":192,
			"byteOffset":3539596,
			"target":34962
		},
		{
			"buffer":0,
			"byteLength":192,
			"byteOffset":3539788,
			"target":34962
		},
		{
			"buffer":0,
			"byteLength":128,
			"byteOffset":3539980,
			"target":34962
		},
		{
			"buffer":0,
			"byteLength":128,
			"byteOffset":3540108,
			"target":34962
		},
		{
			"buffer":0,
			"byteLength":48,
			"byteOffset":3540236,
			"target":34963
		}
	],
	"samplers":[
		{
			"magFilter":9729,
			"minFilter":9987
		}
	],
	"buffers":[
		{
			"byteLength":3540284,
			"uri":"scene.bin"
		}
	]
}
